<svg xmlns="http://www.w3.org/2000/svg" role="img" viewBox="0 0 24 24" width="96px" height="96px">
<linearGradient id="success-main-gradient">
    <stop stop-color="#22c55e" offset="0%"></stop>
    <stop stop-color="#f59e0b" offset="100%"></stop>
</linearGradient>
<path fill="url(#success-main-gradient)" d="M4.5618 21.1397c.3257-.9866.646-1.9556.9582-2.901.3014.0379.5471.073.8771.1118 1.3267.232 2.6604.3768 4.0089.3464 1.6877-.0382 3.3594-.2203 4.9935-.653 1.2821-.3395 2.4954-.8454 3.5445-1.6835.6983-.5575 1.2866-1.2096 1.6693-2.0266.3171-.6775.4575-1.3931.4416-2.1419-.0194-.9033-.2643-1.7395-.718-2.5182-.5674-.9747-1.3655-1.7167-2.3207-2.2974-.8473-.5152-1.7664-.8522-2.7306-1.0736C13.5115 5.8952 11.7101 5.7902 9.8977 5.8178c-.5289.0082-1.0532.0749-1.5645.2212-.2788.0798-.5333.2029-.7422.4112-.3524.3521-.3201.8152.0838 1.1056.2827.2031.6159.2592.9492.304 1.0363.1404 2.0803.1001 3.1214.1193.8551.0155 1.71.0439 2.5511.2119.8297.1656 1.6038.4636 2.2387 1.0457.692.6341 1.0789 1.4057.9951 2.3648-.0587.6721-.3813 1.2153-.8719 1.6647-.5588.5111-1.2395.78-1.9583.965-.9918.2556-2.0021.3473-3.0236.3008-1.0702-.0486-2.1428-.0793-3.2089-.1778-1.2471-.1151-2.4627-.4119-3.6615-.7746-1.0074-.3043-1.941-.7528-2.7698-1.4019-.6945-.544-1.25-1.209-1.5851-2.0326-.3025-.7441-.3789-1.5195-.2169-2.31.2506-1.2213.9144-2.2006 1.8049-3.0431 1.0064-.9519 2.2123-1.5558 3.5075-2.0039.9834-.3402 1.9973-.5478 3.0272-.6755 1.458-.1809 2.9219-.2451 4.3899-.1587.4969.0294.9928.0752 1.46.1111l-.1187.9563c-.4309-.0356-.8532-.0762-1.2763-.1048-1.8221-.1238-3.6316-.0214-5.4219.3445-.9718.1983-1.9005.531-2.7627 1.0275-.9033.5205-1.6514 1.2054-2.1282 2.1454-.5214 1.0291-.5506 2.0615.0473 3.0807.3566.6081.8696 1.0534 1.4599 1.4187.8133.5037 1.7174.7668 2.6379.9848 1.3719.3245 2.7686.4417 4.1725.4873.8242.0268 1.6501.0469 2.465-.1118.4301-.084.8632-.1721 1.2293-.4398.6503-.4759.6642-1.2449.029-1.7487-.3457-.274-.7594-.3687-1.1832-.4295-1.119-.1607-2.247-.1178-3.3722-.1402-.86-.0172-1.7193-.0502-2.5648-.2244-.5853-.1208-1.142-.3201-1.611-.7072-.8045-.664-.9025-1.7033-.2425-2.5127.5186-.6359 1.2139-.978 1.9872-1.1837.8553-.2275 1.729-.3019 2.6108-.2954 1.3541.0098 2.7058.0545 4.0475.2638 1.5551.2423 3.069.6166 4.4705 1.3607 1.0141.5386 1.9281 1.2085 2.7061 2.0594.6876.7521 1.2235 1.5972 1.5794 2.5519.3527.9463.4946 1.9273.4292 2.9359-.0591.9103-.3112 1.7654-.743 2.5682-.4545.8449-1.0607 1.5704-1.7897 2.1856-.7108.5996-1.4798 1.1196-2.3269 1.5149-1.1808.5509-2.4103.951-3.6921 1.1882-1.3061.2419-2.6134.4677-3.9453.5046-1.7325.0483-3.4558-.0272-5.1633-.3496-.4556-.086-.9125-.1678-1.3918-.2557"></path>
</svg>